<svg xmlns="http://www.w3.org/2000/svg" width="28" height="28" viewBox="0 0 28 28"><defs><style>.a{fill-rule:evenodd;}</style></defs><path class="a" d="M14,28A14,14,0,1,0,0,14,14,14,0,0,0,14,28Zm0-1.68A12.32,12.32,0,1,0,1.68,14,12.32,12.32,0,0,0,14,26.32ZM7.84,11.266v8.142h2.638V11.266ZM9.332,7.28A1.409,1.409,0,1,0,9.3,10.094h.017A1.409,1.409,0,1,0,9.332,7.28Zm7.791,3.986a2.609,2.609,0,0,0-2.377,1.345V11.458H12.108c.035.764,0,8.142,0,8.142h2.638V15.053a1.9,1.9,0,0,1,.087-.66,1.448,1.448,0,0,1,1.353-.99c.955,0,1.337.747,1.337,1.841V19.6H20.16V14.931C20.16,12.43,18.859,11.266,17.123,11.266Zm0,0"/></svg>