<svg xmlns="http://www.w3.org/2000/svg" width="28" height="28" viewBox="0 0 28 28"><defs><style>.a{fill-rule:evenodd;}</style></defs><path class="a" d="M14,28A14,14,0,1,0,0,14,14,14,0,0,0,14,28Zm0-1.68A12.32,12.32,0,1,0,1.68,14,12.32,12.32,0,0,0,14,26.32Zm-.178-14.81.027.46-.445-.056A7.125,7.125,0,0,1,9.166,9.735l-.588-.61-.151.451a2.8,2.8,0,0,0,.552,2.78c.356.394.276.451-.338.216-.214-.075-.4-.131-.418-.1a3.488,3.488,0,0,0,.32,1.259,2.933,2.933,0,0,0,1.22,1.2l.436.216-.516.009c-.5,0-.516.009-.463.207a2.738,2.738,0,0,0,1.665,1.54l.552.2-.481.3a4.85,4.85,0,0,1-2.386.7,2.528,2.528,0,0,0-.73.075A6.647,6.647,0,0,0,9.558,19a7.234,7.234,0,0,0,5.84-.7,8.082,8.082,0,0,0,2.964-3.644,10.059,10.059,0,0,0,.605-2.818c0-.432.027-.488.525-1a6.055,6.055,0,0,0,.623-.723c.089-.178.08-.178-.374-.019-.757.282-.863.244-.49-.178a2.756,2.756,0,0,0,.605-1c0-.028-.134.019-.285.1a4.841,4.841,0,0,1-.783.319l-.481.16-.436-.31a3.57,3.57,0,0,0-.757-.413,2.915,2.915,0,0,0-1.558.038,2.691,2.691,0,0,0-1.736,2.7Zm0,0"/></svg>
