<svg xmlns="http://www.w3.org/2000/svg" width="28" height="28" viewBox="0 0 28 28"><defs><style>.a{fill-rule:evenodd;}</style></defs><path class="a" d="M28,14A14,14,0,1,0,14,28,14,14,0,0,0,28,14Zm-1.68,0A12.32,12.32,0,1,0,14,26.32,12.32,12.32,0,0,0,26.32,14Zm-5.73,3.229a1.725,1.725,0,0,1-1.476,1.342A45.862,45.862,0,0,1,14,18.76a45.86,45.86,0,0,1-5.115-.189,1.725,1.725,0,0,1-1.476-1.342A14.636,14.636,0,0,1,7.171,14a14.649,14.649,0,0,1,.24-3.229A1.725,1.725,0,0,1,8.887,9.429,45.863,45.863,0,0,1,14,9.24a45.86,45.86,0,0,1,5.115.189,1.725,1.725,0,0,1,1.476,1.342A14.638,14.638,0,0,1,20.829,14,14.646,14.646,0,0,1,20.59,17.229Zm-7.82-5.749,3.78,2.182-3.78,2.182Zm0,0"/></svg>
